<?xml version="1.0" encoding="UTF-8"?>
<svg id="Layer_1" data-name="Layer 1" xmlns="http://www.w3.org/2000/svg" xmlns:xlink="http://www.w3.org/1999/xlink" version="1.1" viewBox="0 0 1353.78 290.1">
  <defs>
    <style>
      .cls-1 {
        fill: url(#New_Gradient_Swatch_2);
      }

      .cls-1, .cls-2, .cls-3, .cls-4, .cls-5, .cls-6, .cls-7 {
        stroke-width: 0px;
      }

      .cls-2 {
        fill: url(#New_Gradient_Swatch_2-3);
      }

      .cls-3 {
        fill: url(#New_Gradient_Swatch_2-4);
      }

      .cls-4 {
        fill: url(#New_Gradient_Swatch_2-2);
      }

      .cls-5 {
        fill: #fff;
      }

      .cls-6 {
        fill: #fff;
      }

      .cls-7 {
        fill: #fff;
      }
    </style>
    <linearGradient id="New_Gradient_Swatch_2" data-name="New Gradient Swatch 2" x1="1052.45" y1="134.41" x2="1059.12" y2="146.29" gradientUnits="userSpaceOnUse">
      <stop offset="0" stop-color="#4a0fa0"/>
      <stop offset=".48" stop-color="#4a0fa0"/>
      <stop offset="1" stop-color="#4a0fa0"/>
    </linearGradient>
    <linearGradient id="New_Gradient_Swatch_2-2" data-name="New Gradient Swatch 2" x1="75.92" y1="108.77" x2="213.71" y2="193.42" xlink:href="#New_Gradient_Swatch_2"/>
    <linearGradient id="New_Gradient_Swatch_2-3" data-name="New Gradient Swatch 2" x1="54.89" y1="77.52" x2="253.11" y2="199.31" xlink:href="#New_Gradient_Swatch_2"/>
    <linearGradient id="New_Gradient_Swatch_2-4" data-name="New Gradient Swatch 2" x1="121.82" y1="144.14" x2="176.81" y2="144.14" xlink:href="#New_Gradient_Swatch_2"/>
  </defs>
  <g>
    <path class="cls-6" d="M430.44,22.74c39.58,0,71.89,32.31,71.89,72.51s-32.31,72.51-71.89,72.51c-12.36,0-23.44-2.21-33.26-7.27v37.37c0,11.08-8.87,19.95-19.63,19.95s-19.95-8.87-19.95-19.95v-102.61c0-40.2,32.31-72.51,72.84-72.51ZM430.44,62.33c-18.37,0-33.25,14.88-33.26,32.92,0,18.37,14.88,32.93,33.26,32.93s32.61-14.56,32.61-32.93-14.88-32.92-32.61-32.92Z"/>
    <g>
      <path class="cls-1" d="M1056.52,150.27c.16-1.74.23-3.51.23-5.29v-11.5c0,5.61-.07,11.21-.23,16.79Z"/>
      <path class="cls-7" d="M1143.01,72.08c8.82,0,17.28,1.52,25.41,4.54,8.12,3.03,15.43,7.26,21.91,12.71,6.48,5.45,11.88,11.93,16.21,19.45,4.32,7.52,7.09,15.69,8.3,24.5l.26,1.56v82.98h-18.93c-12.1-.69-18.15-6.65-18.15-17.89v-61.72c0-.52-.04-.95-.13-1.3-.09-.34-.13-.69-.13-1.04-1.04-3.8-2.68-7.35-4.93-10.63-2.25-3.28-4.93-6.09-8.04-8.43-3.11-2.33-6.53-4.19-10.24-5.58-3.72-1.38-7.56-2.07-11.54-2.07-4.84,0-9.42.95-13.74,2.85-4.32,1.9-8.08,4.45-11.28,7.65-3.2,3.2-5.75,6.96-7.65,11.28-1.91,4.32-2.85,8.91-2.85,13.74v55.23c0,11.07-6.14,17.03-18.41,17.89h-18.93v-73.39c0-10.02,1.9-19.45,5.7-28.26,3.8-8.82,8.99-16.47,15.56-22.95,6.57-6.48,14.3-11.62,23.21-15.43,8.9-3.8,18.37-5.7,28.4-5.7Z"/>
      <path class="cls-7" d="M1056.75,90.67v42.81c0,5.61-.07,11.21-.23,16.79-1.74,60.28-13.99,117.21-62.05,117.21-22.54,0-38.23-8.01-51.8-27.13-6.42-9.03-7.08-20.05.83-25.26,2.61-2.07,5.98-3.09,9.43-2.98,6.9.22,11.86,3.51,16.21,9.11,6.29,8.1,11.52,12.14,22.05,12.81,11.17.71,28.55-13.72,28.68-31.46,0-.25.01-.51.03-.77-7.78,3.51-16.38,5.46-25.42,5.46-34.23,0-62.28-28.03-62.28-62.26v-54.31c0-10.02,8.27-18.6,18.59-18.6s18.6,8.56,18.6,18.6v54.31c0,13.86,11.52,25.38,25.09,25.38,14.47,0,25.39-11.52,25.39-25.38v-54.31c0-10.04,8.26-18.6,18.59-18.6s18.3,8.56,18.3,18.6Z"/>
      <g>
        <path class="cls-7" d="M1264.53,151.51c.04.46.07.8.07.97-.03-.17-.04-.51-.07-.97Z"/>
        <path class="cls-7" d="M1337.49,214.64c-2.94,2.06-6.48,2.65-10.02,2.65-5.9,0-12.11-2.65-15.94-8.26l-27.45-41.33-16.08,16.08-3.39,3.36-.07.06v29.96c0,.07-.06.13-.13.13h-18.02c-5.62-.43-9.92-1.96-12.91-4.59-2.98-2.64-4.64-6.39-4.98-11.23V22.74c0-.07.06-.13.13-.13h18.54c4.84,0,8.94,1.77,12.31,5.32,3.38,3.55,5.06,7.65,5.06,12.31v94.36h.1s46.91-46.59,46.91-46.59c3.82-4.13,8.84-5.9,13.27-5.9,4.72,0,9.45,1.77,12.98,5.32,7.1,7.37,7.1,19.18,0,26.55l-26.84,26.87,31.28,47.81c6.19,8.85,3.53,20.08-4.74,25.97Z"/>
        <polygon class="cls-7" points="1268 183.78 1264.61 187.17 1264.61 187.14 1268 183.78"/>
      </g>
      <path class="cls-7" d="M910,217.81h-67.54c-11.24-.87-17.11-6.23-17.63-16.08V22.74h18.67c4.84,0,8.94,1.72,12.31,5.19,3.38,3.46,5.06,7.61,5.06,12.44v137.02h63.35c11.66,23.48.09,40.42-14.23,40.42Z"/>
      <path class="cls-6" d="M739.72,72.08c39.61,0,71.95,32.33,71.95,72.57s-32.34,72.57-71.95,72.57c-12.37,0-23.46-2.21-33.28-7.28v37.4c0,11.09-8.88,19.97-19.64,19.97s-19.97-8.88-19.97-19.97v-102.69c0-40.24,32.33-72.57,72.9-72.57ZM739.72,111.7c-18.38,0-33.27,14.89-33.28,32.95,0,18.38,14.89,32.96,33.28,32.96s32.64-14.57,32.64-32.96-14.89-32.95-32.64-32.95Z"/>
      <path class="cls-6" d="M581.05,72.08c10.2,0,19.71,1.9,28.52,5.7,8.82,3.8,16.51,8.99,23.08,15.56,6.57,6.57,11.71,14.26,15.43,23.08,3.71,8.82,5.58,18.33,5.58,28.53s-1.86,19.49-5.58,28.4c-3.72,8.91-8.86,16.64-15.43,23.21-6.57,6.57-14.26,11.76-23.08,15.56-8.82,3.8-18.33,5.7-28.52,5.7s-19.71-1.9-28.53-5.7c-8.82-3.8-16.51-8.99-23.08-15.56-6.57-6.57-11.76-14.26-15.56-23.08-3.8-8.82-5.71-18.32-5.71-28.52s1.9-19.71,5.71-28.53c3.8-8.82,8.99-16.51,15.56-23.08,6.57-6.57,14.26-11.75,23.08-15.56,8.82-3.8,18.32-5.7,28.53-5.7ZM581.05,180.47c4.84,0,9.42-.95,13.74-2.85,4.32-1.9,8.08-4.45,11.28-7.65,3.2-3.2,5.75-6.96,7.65-11.28,1.9-4.32,2.85-8.9,2.85-13.74s-.91-9.64-2.72-13.87c-1.82-4.23-4.37-7.99-7.65-11.28-3.29-3.28-7.05-5.83-11.28-7.65-4.24-1.82-8.86-2.72-13.87-2.72s-9.47.91-13.87,2.72c-4.41,1.82-8.21,4.37-11.41,7.65-3.2,3.29-5.75,7.05-7.65,11.28-1.9,4.24-2.85,8.86-2.85,13.87s.95,9.42,2.85,13.74c1.9,4.32,4.45,8.13,7.65,11.41,3.2,3.29,7,5.83,11.41,7.65,4.41,1.82,9.03,2.72,13.87,2.72Z"/>
    </g>
  </g>
  <g>
    <circle class="cls-5" cx="149.89" cy="145.05" r="141.73"/>
    <g>
      <path class="cls-4" d="M132.42,183.39c-4.49-4.49-4.63-12.04,0-16.66,4.63-4.63,12.17-4.5,16.66,0l24.33,24.33c6.21,6.21,16.53,6.21,22.62.13,6.48-6.48,6.21-16.53,0-22.75l-24.33-24.33c-4.5-4.5-4.63-12.04,0-16.66,4.49-4.49,12.03-4.36,16.53.14l24.33,24.33c15.34,15.34,15.33,40.46,0,55.8-15.34,15.34-40.46,15.34-55.8,0l-24.33-24.33Z"/>
      <path class="cls-2" d="M167.35,106.71c4.49,4.49,4.63,12.04,0,16.66-4.63,4.63-12.17,4.5-16.66,0l-24.33-24.33c-6.21-6.21-16.53-6.21-22.62-.13-6.48,6.48-6.21,16.53,0,22.75l24.33,24.33c4.5,4.5,4.63,12.04,0,16.66-4.49,4.49-12.03,4.36-16.53-.14l-24.33-24.33c-15.34-15.34-15.33-40.46,0-55.8,15.34-15.34,40.46-15.34,55.8,0l24.33,24.33Z"/>
      <path class="cls-3" d="M167.09,171.76c-2.5,0-5-.96-6.9-2.87l-35.54-35.81c-3.78-3.81-3.76-9.97.05-13.75s9.96-3.76,13.75.05l35.54,35.81c3.78,3.81,3.76,9.97-.05,13.75-1.9,1.88-4.37,2.82-6.85,2.82Z"/>
    </g>
  </g>
</svg>